<?xml version="1.0" encoding="UTF-8"?>
<svg xmlns="http://www.w3.org/2000/svg" width="200" height="30" viewBox="0 0 200 30">
  <path d="M198.102 12.209c-1.113-1.711-2.688-2.934-4.725-3.67-2.037-.735-4.242-1.103-6.615-1.103-2.373 0-4.578.368-6.615 1.103-2.037.736-3.612 1.959-4.725 3.67-1.113 1.711-1.67 3.891-1.67 6.54 0 2.649.557 4.829 1.67 6.54 1.113 1.711 2.688 2.934 4.725 3.67 2.037.735 4.242 1.103 6.615 1.103 2.373 0 4.578-.368 6.615-1.103 2.037-.736 3.612-1.959 4.725-3.67 1.113-1.711 1.67-3.891 1.67-6.54 0-2.649-.557-4.829-1.67-6.54zM186.762 25.96c-1.484 0-2.856-.257-4.116-.772-1.26-.515-2.261-1.278-3.003-2.289-.742-1.011-1.113-2.289-1.113-3.834 0-1.545.371-2.823 1.113-3.834.742-1.011 1.743-1.774 3.003-2.289 1.26-.515 2.632-.772 4.116-.772 1.484 0 2.856.257 4.116.772 1.26.515 2.261 1.278 3.003 2.289.742 1.011 1.113 2.289 1.113 3.834 0 1.545-.371 2.823-1.113 3.834-.742 1.011-1.743 1.774-3.003 2.289-1.26.515-2.632.772-4.116.772zM157.814 12.209c-1.113-1.711-2.688-2.934-4.725-3.67-2.037-.735-4.242-1.103-6.615-1.103-2.373 0-4.578.368-6.615 1.103-2.037.736-3.612 1.959-4.725 3.67-1.113 1.711-1.67 3.891-1.67 6.54 0 2.649.557 4.829 1.67 6.54 1.113 1.711 2.688 2.934 4.725 3.67 2.037.735 4.242 1.103 6.615 1.103 2.373 0 4.578-.368 6.615-1.103 2.037-.736 3.612-1.959 4.725-3.67 1.113-1.711 1.67-3.891 1.67-6.54 0-2.649-.557-4.829-1.67-6.54zM146.474 25.96c-1.484 0-2.856-.257-4.116-.772-1.26-.515-2.261-1.278-3.003-2.289-.742-1.011-1.113-2.289-1.113-3.834 0-1.545.371-2.823 1.113-3.834.742-1.011 1.743-1.774 3.003-2.289 1.26-.515 2.632-.772 4.116-.772 1.484 0 2.856.257 4.116.772 1.26.515 2.261 1.278 3.003 2.289.742 1.011 1.113 2.289 1.113 3.834 0 1.545-.371 2.823-1.113 3.834-.742 1.011-1.743 1.774-3.003 2.289-1.26.515-2.632.772-4.116.772zM117.526 12.209c-1.113-1.711-2.688-2.934-4.725-3.67-2.037-.735-4.242-1.103-6.615-1.103-2.373 0-4.578.368-6.615 1.103-2.037.736-3.612 1.959-4.725 3.67-1.113 1.711-1.67 3.891-1.67 6.54 0 2.649.557 4.829 1.67 6.54 1.113 1.711 2.688 2.934 4.725 3.67 2.037.735 4.242 1.103 6.615 1.103 2.373 0 4.578-.368 6.615-1.103 2.037-.736 3.612-1.959 4.725-3.67 1.113-1.711 1.67-3.891 1.67-6.54 0-2.649-.557-4.829-1.67-6.54zM106.186 25.96c-1.484 0-2.856-.257-4.116-.772-1.26-.515-2.261-1.278-3.003-2.289-.742-1.011-1.113-2.289-1.113-3.834 0-1.545.371-2.823 1.113-3.834.742-1.011 1.743-1.774 3.003-2.289 1.26-.515 2.632-.772 4.116-.772 1.484 0 2.856.257 4.116.772 1.26.515 2.261 1.278 3.003 2.289.742 1.011 1.113 2.289 1.113 3.834 0 1.545-.371 2.823-1.113 3.834-.742 1.011-1.743 1.774-3.003 2.289-1.26.515-2.632.772-4.116.772zM77.238 12.209c-1.113-1.711-2.688-2.934-4.725-3.67-2.037-.735-4.242-1.103-6.615-1.103-2.373 0-4.578.368-6.615 1.103-2.037.736-3.612 1.959-4.725 3.67-1.113 1.711-1.67 3.891-1.67 6.54 0 2.649.557 4.829 1.67 6.54 1.113 1.711 2.688 2.934 4.725 3.67 2.037.735 4.242 1.103 6.615 1.103 2.373 0 4.578-.368 6.615-1.103 2.037-.736 3.612-1.959 4.725-3.67 1.113-1.711 1.67-3.891 1.67-6.54 0-2.649-.557-4.829-1.67-6.54zM65.898 25.96c-1.484 0-2.856-.257-4.116-.772-1.26-.515-2.261-1.278-3.003-2.289-.742-1.011-1.113-2.289-1.113-3.834 0-1.545.371-2.823 1.113-3.834.742-1.011 1.743-1.774 3.003-2.289 1.26-.515 2.632-.772 4.116-.772 1.484 0 2.856.257 4.116.772 1.26.515 2.261 1.278 3.003 2.289.742 1.011 1.113 2.289 1.113 3.834 0 1.545-.371 2.823-1.113 3.834-.742 1.011-1.743 1.774-3.003 2.289-1.26.515-2.632.772-4.116.772zM36.95 12.209c-1.113-1.711-2.688-2.934-4.725-3.67-2.037-.735-4.242-1.103-6.615-1.103-2.373 0-4.578.368-6.615 1.103-2.037.736-3.612 1.959-4.725 3.67-1.113 1.711-1.67 3.891-1.67 6.54 0 2.649.557 4.829 1.67 6.54 1.113 1.711 2.688 2.934 4.725 3.67 2.037.735 4.242 1.103 6.615 1.103 2.373 0 4.578-.368 6.615-1.103 2.037-.736 3.612-1.959 4.725-3.67 1.113-1.711 1.67-3.891 1.67-6.54 0-2.649-.557-4.829-1.67-6.54zM25.61 25.96c-1.484 0-2.856-.257-4.116-.772-1.26-.515-2.261-1.278-3.003-2.289-.742-1.011-1.113-2.289-1.113-3.834 0-1.545.371-2.823 1.113-3.834.742-1.011 1.743-1.774 3.003-2.289 1.26-.515 2.632-.772 4.116-.772 1.484 0 2.856.257 4.116.772 1.26.515 2.261 1.278 3.003 2.289.742 1.011 1.113 2.289 1.113 3.834 0 1.545-.371 2.823-1.113 3.834-.742 1.011-1.743 1.774-3.003 2.289-1.26.515-2.632.772-4.116.772z"/>
</svg> 